<svg xmlns="http://www.w3.org/2000/svg" xmlns:svg="http://www.w3.org/2000/svg" id="svg2" width="230.18" height="136.903" version="1.1" viewBox="0 0 230.18 136.903"><title id="title4253">Splatoony Button</title><defs id="defs4"><filter id="filter4760" color-interpolation-filters="sRGB"><feFlood id="feFlood4762" flood-color="#000" flood-opacity=".251" result="flood"/><feComposite id="feComposite4764" in="flood" in2="SourceGraphic" operator="in" result="composite1"/><feGaussianBlur id="feGaussianBlur4766" in="composite1" result="blur" stdDeviation="1"/><feOffset id="feOffset4768" dx="2" dy="2" result="offset"/><feComposite id="feComposite4770" in="offset" in2="offset" operator="atop" result="composite2"/></filter></defs><metadata id="metadata7"/><g id="layer1" transform="translate(-140.45283,-94.471055)"><g id="g4407" transform="translate(6.1370731,1.5568583)"><ellipse id="path4165" cx="252.706" cy="162.053" fill="#63e76f" fill-opacity="1" stroke="none" stroke-dasharray="none" stroke-dashoffset="0" stroke-linecap="butt" stroke-linejoin="round" stroke-miterlimit="4" stroke-opacity="1" stroke-width="4" opacity="1" rx="58.399" ry="38.042"/><path id="path4167" fill="#64e670" fill-opacity="1" fill-rule="evenodd" stroke="none" stroke-linecap="butt" stroke-linejoin="miter" stroke-opacity="1" stroke-width="1" d="m 232.85672,129.34742 0.29061,-2.367 c 0.87789,-0.31699 1.66017,-0.89373 2.22258,-1.63862 0.56242,-0.74489 0.90291,-1.6552 0.9674,-2.58633 0.0843,-1.21784 -0.29713,-2.43291 -0.88947,-3.50033 -0.59235,-1.06742 -1.38896,-2.00566 -2.19675,-2.92093 -0.8078,-0.91527 -1.63604,-1.82029 -2.30536,-2.8412 -0.66931,-1.02092 -1.17883,-2.17515 -1.27422,-3.39218 -0.0954,-1.21748 0.23416,-2.45211 0.85359,-3.50458 0.61943,-1.05246 1.51948,-1.92661 2.54612,-2.58796 2.05328,-1.3227 4.54384,-1.78409 6.98029,-1.95495 1.74059,-0.12206 3.51142,-0.1076 5.20147,0.32632 1.69004,0.43392 3.3048,1.31819 4.37834,2.69371 0.92027,1.17913 1.40153,2.67447 1.44227,4.16966 0.0408,1.49519 -0.34593,2.98727 -1.01749,4.32378 -0.37448,0.74528 -0.83353,1.44522 -1.21765,2.18559 -0.38412,0.74036 -0.69099,1.53114 -0.79246,2.35903 -0.10146,0.82788 0.0121,1.67991 0.32186,2.45433 0.30976,0.77442 0.8087,1.45603 1.31728,2.11711 l 3.95709,5.14366 -20.7855,1.52089 z" opacity="1"/><path id="path4167-6" fill="#64e670" fill-opacity="1" fill-rule="evenodd" stroke="none" stroke-linecap="butt" stroke-linejoin="miter" stroke-opacity="1" stroke-width="1" d="m 257.80858,128.2878 -0.24442,-3.37945 c 0.49577,0.17334 1.03937,0.20758 1.55297,0.0978 0.5136,-0.10977 0.99571,-0.36322 1.37731,-0.72408 0.69649,-0.65864 1.02503,-1.63899 1.05172,-2.59722 0.0267,-0.95822 -0.22104,-1.90349 -0.53361,-2.8097 -0.31257,-0.9062 -0.6922,-1.79051 -0.94478,-2.71523 -0.25259,-0.92472 -0.37472,-1.90748 -0.16147,-2.84205 0.19417,-0.85095 0.66437,-1.62954 1.29395,-2.23407 0.62958,-0.60452 1.41393,-1.03817 2.24711,-1.29823 1.66637,-0.52013 3.48047,-0.34751 5.16468,0.11154 1.22662,0.33433 2.42428,0.82367 3.45124,1.57315 1.02695,0.74948 1.87771,1.77351 2.28903,2.9765 0.37082,1.08454 0.37108,2.28119 0.0709,3.38737 -0.3002,1.10617 -0.89247,2.12287 -1.65222,2.98108 -0.35291,0.39865 -0.74075,0.76525 -1.0936,1.16396 -0.35284,0.39871 -0.67049,0.83406 -0.88825,1.31991 -0.21776,0.48585 -0.32984,1.01802 -0.33019,1.55044 -3.6e-4,0.53241 0.1113,1.05783 0.23205,1.57637 l 1.34543,5.77768 -14.22783,-3.91578 z" opacity="1"/><path id="path4207" fill="#66e772" fill-opacity="1" fill-rule="evenodd" stroke="none" stroke-linecap="butt" stroke-linejoin="miter" stroke-opacity="1" stroke-width="1" d="m 272.41712,126.77599 8.30357,0.26786 c 2.09266,-2.15443 3.69242,-4.78481 4.64285,-7.63393 0.57678,-1.72903 0.9155,-3.5283 1.43892,-5.27422 0.52343,-1.74592 1.2553,-3.47395 2.48966,-4.81506 0.89427,-0.97161 2.0264,-1.70746 3.23964,-2.22881 1.21323,-0.52136 2.50807,-0.83391 3.81393,-1.03012 3.4115,-0.51259 6.91653,-0.23802 10.26785,0.58035 1.19666,0.29222 2.38509,0.6566 3.47257,1.2352 1.08748,0.57859 2.07552,1.3837 2.73279,2.42552 0.60286,0.95557 0.90905,2.08899 0.91074,3.21883 0.002,1.12985 -0.29654,2.25386 -0.82144,3.25438 -0.98063,1.86919 -2.69625,3.24884 -4.50893,4.33036 -3.38209,2.01788 -7.27515,3.20732 -10.3125,5.71429 -1.45182,1.1983 -2.67136,2.67699 -3.57143,4.33035 l -0.40179,5.49107 -21.69643,-9.86607 z" opacity="1"/><path id="path4229" fill="#66e772" fill-opacity="1" fill-rule="evenodd" stroke="none" stroke-linecap="butt" stroke-linejoin="miter" stroke-opacity="1" stroke-width="1" d="m 294.81676,135.34659 9.21765,-0.56822 7.07106,-7.57614 8.83884,-2.65165 6.75539,0.56821 3.53554,2.46225 0.69448,5.24016 -5.61898,3.85121 -6.88166,2.27284 -7.57615,0.94702 -4.23001,9.97526 -11.80616,-14.52094 z" opacity="1"/><path id="path4233" fill="#64e670" fill-opacity="1" fill-rule="evenodd" stroke="none" stroke-linecap="butt" stroke-linejoin="miter" stroke-opacity="1" stroke-width="1" d="m 307.128,145.13243 c 1.93288,0.84425 4.16574,0.98095 6.18718,0.37881 2.595,-0.77299 4.73604,-2.6749 7.32361,-3.4724 1.88669,-0.58149 3.97097,-0.53283 5.80838,0.1894 0.68584,0.26959 1.33994,0.63261 1.8951,1.11723 0.55516,0.48462 1.00927,1.09459 1.26162,1.78696 0.37982,1.04213 0.27359,2.24338 -0.25253,3.21986 -0.36903,0.68492 -0.92941,1.25571 -1.56874,1.69903 -0.63934,0.44333 -1.35696,0.7639 -2.09307,1.01576 -2.25917,0.77296 -4.7175,0.9076 -7.07107,0.50508 -0.87983,-0.15047 -1.76105,-0.37536 -2.65165,-0.31568 -1.36494,0.0915 -2.66177,0.89892 -3.34613,2.08344 l -3.09359,4.10375 -2.39911,-12.31124 z" opacity="1"/><ellipse id="path4237" cx="342.515" cy="136.42" fill="#64e670" fill-opacity="1" stroke="none" stroke-dasharray="none" stroke-dashoffset="0" stroke-linecap="butt" stroke-linejoin="round" stroke-miterlimit="4" stroke-opacity="1" stroke-width="4" opacity="1" rx="6.029" ry="3.84"/><ellipse id="path4237-6" cx="345.893" cy="176.131" fill="#64e670" fill-opacity="1" stroke="none" stroke-dasharray="none" stroke-dashoffset="0" stroke-linecap="butt" stroke-linejoin="round" stroke-miterlimit="4" stroke-opacity="1" stroke-width="4" opacity="1" rx="6.029" ry="3.84"/><ellipse id="path4237-6-2" cx="346.65" cy="184.508" fill="#64e670" fill-opacity="1" stroke="none" stroke-dasharray="none" stroke-dashoffset="0" stroke-linecap="butt" stroke-linejoin="round" stroke-miterlimit="4" stroke-opacity="1" stroke-width="4" opacity="1" rx="3.689" ry="2.746"/><path id="path4269" fill="#5fe56d" fill-opacity="1" fill-rule="evenodd" stroke="none" stroke-linecap="butt" stroke-linejoin="miter" stroke-opacity="1" stroke-width="1" d="m 309.90592,156.49665 4.98763,3.21986 c 2.71587,0.82269 5.66897,0.84489 8.39689,0.0631 2.37205,-0.6798 4.53924,-1.93906 6.88167,-2.71478 3.21864,-1.06589 6.73029,-1.18507 10.03839,-0.44195 1.17618,0.26421 2.33486,0.63777 3.39649,1.20885 1.06163,0.57109 2.02602,1.34636 2.72756,2.32669 0.84339,1.17856 1.28413,2.66992 1.07328,4.10374 -0.22321,1.5179 -1.1743,2.89125 -2.46224,3.72494 -1.05565,0.68332 -2.30549,1.01599 -3.55489,1.15855 -1.2494,0.14256 -2.51121,0.10485 -3.76872,0.10414 -3.03286,-0.002 -6.07748,0.2124 -9.09137,-0.12627 -2.01512,-0.22644 -3.99417,-0.69786 -5.99778,-1.01015 -3.25391,-0.50716 -6.57336,-0.59228 -9.84899,-0.25254 l -3.97748,0.94702 1.19956,-12.3112 z" opacity="1"/><path id="path4273" fill="#5fe56d" fill-opacity="1" fill-rule="evenodd" stroke="none" stroke-linecap="butt" stroke-linejoin="miter" stroke-opacity="1" stroke-width="1" d="m 309.40084,170.44938 c 4.20691,1.30814 8.51824,2.2803 12.87944,2.90419 1.1194,0.16014 2.24765,0.29854 3.33201,0.61927 1.08436,0.32073 2.13525,0.83778 2.91831,1.65357 0.73298,0.76361 1.20515,1.78414 1.26269,2.84105 0.0686,1.25975 -0.4769,2.54571 -1.45209,3.34613 -0.68329,0.56083 -1.53781,0.87435 -2.39911,1.07329 -2.53985,0.58665 -5.22589,0.24529 -7.70242,-0.56821 -2.60812,-0.85672 -5.0203,-2.21789 -7.57614,-3.21986 -2.36848,-0.92852 -4.85878,-1.54577 -7.38674,-1.8309 l 6.12405,-6.81853 z" opacity="1"/><path id="path4277" fill="#59e66a" fill-opacity="1" fill-rule="evenodd" stroke="none" stroke-linecap="butt" stroke-linejoin="miter" stroke-opacity="1" stroke-width="1" d="m 300.75141,183.32882 c 4.2803,1.50364 8.44297,3.34198 12.4375,5.49271 1.89307,1.01926 3.81819,2.1733 4.98763,3.97747 0.7006,1.08086 1.0932,2.37642 1.01015,3.6618 -0.0754,1.16739 -0.56535,2.33059 -1.45209,3.0936 -0.49195,0.42331 -1.09068,0.71406 -1.71789,0.88083 -0.62721,0.16677 -1.28283,0.21222 -1.93088,0.17711 -1.29611,-0.0702 -2.55092,-0.45632 -3.8011,-0.80541 -1.27673,-0.35651 -2.56901,-0.67897 -3.78808,-1.19955 -2.99856,-1.28048 -5.35927,-3.66437 -7.7228,-5.91041 -1.43706,-1.36562 -2.90386,-2.69995 -4.39902,-4.00171 l 6.37658,-5.36644 z" opacity="1"/><ellipse id="path4237-6-2-9" cx="303.411" cy="212.164" fill="#64e670" fill-opacity="1" stroke="none" stroke-dasharray="none" stroke-dashoffset="0" stroke-linecap="butt" stroke-linejoin="round" stroke-miterlimit="4" stroke-opacity="1" stroke-width="4" opacity="1" rx="4.746" ry="4.135"/><path id="path4296" fill="#59e567" fill-opacity="1" fill-rule="evenodd" stroke="none" stroke-linecap="butt" stroke-linejoin="miter" stroke-opacity="1" stroke-width="1" d="m 283.76822,193.49349 c -0.23612,2.10613 0.47171,4.30037 1.89404,5.87151 1.10833,1.22428 2.58017,2.04401 3.96601,2.94218 1.38585,0.89816 2.75774,1.95116 3.48386,3.43441 0.6524,1.33266 0.71343,2.87477 0.63135,4.35628 -0.0331,0.59738 -0.0878,1.19613 -0.22716,1.77797 -0.13936,0.58185 -0.3662,1.14871 -0.71986,1.63129 -0.59444,0.81113 -1.52058,1.33945 -2.49515,1.58741 -0.97458,0.24796 -1.9988,0.23462 -2.99755,0.11723 -2.2189,-0.2608 -4.42652,-1.06526 -6.06092,-2.58851 -1.26527,-1.17922 -2.13918,-2.74922 -2.58852,-4.41942 -0.39587,-1.47146 -0.47305,-3.0152 -0.88388,-4.48255 -0.39843,-1.42307 -1.10793,-2.75182 -2.0203,-3.91434 -0.89674,-1.14261 -1.99111,-2.12969 -3.21987,-2.90419 l 11.23795,-3.40927 z" opacity="1"/><path id="path4304" fill="#59e567" fill-opacity="1" fill-rule="evenodd" stroke="none" stroke-linecap="butt" stroke-linejoin="miter" stroke-opacity="1" stroke-width="1" d="m 245.80997,199.32063 c 0.70234,0.4778 1.25492,1.17248 1.5625,1.9643 0.28707,0.73904 0.36084,1.54743 0.31741,2.33908 -0.0434,0.79165 -0.20041,1.57222 -0.36201,2.34842 -0.20123,0.96654 -0.41078,1.93461 -0.49328,2.91842 -0.0825,0.98381 -0.0345,1.99066 0.27007,2.92978 0.4669,1.43983 1.53522,2.65554 2.85714,3.39287 1.10713,0.61753 2.37682,0.91091 3.6435,0.96177 1.26668,0.0509 2.53367,-0.13374 3.76721,-0.42607 0.9612,-0.22779 1.9167,-0.52545 2.76786,-1.02677 1.08568,-0.63945 1.9862,-1.62617 2.41071,-2.8125 0.3042,-0.85012 0.35895,-1.77342 0.28162,-2.67301 -0.0773,-0.89958 -0.28264,-1.78261 -0.48699,-2.66208 -0.20436,-0.87948 -0.40894,-1.76273 -0.48475,-2.66244 -0.0758,-0.89972 -0.0187,-1.82304 0.28834,-2.67213 0.41144,-1.13774 1.2788,-2.10328 2.36607,-2.63392 l -18.7054,0.71428 z" opacity="1"/><path id="path4308" fill="#59e568" fill-opacity="1" fill-rule="evenodd" stroke="none" stroke-linecap="butt" stroke-linejoin="miter" stroke-opacity="1" stroke-width="1" d="m 241.84689,198.54424 -6.37659,2.58852 c -0.73123,0.93713 -1.23375,2.05142 -1.45209,3.21986 -0.27596,1.47682 -0.10078,2.99781 0.1192,4.484 0.21998,1.48618 0.48495,2.982 0.38588,4.48111 -0.11689,1.76884 -0.77624,3.53539 -2.02031,4.79822 -0.98904,1.00396 -2.29765,1.64845 -3.65412,2.03068 -1.35648,0.38223 -2.76907,0.51739 -4.17456,0.62097 -1.07095,0.0789 -2.14735,0.14048 -3.2178,0.0551 -1.07046,-0.0854 -2.14032,-0.32232 -3.09566,-0.81271 -1.69899,-0.87211 -2.94885,-2.55144 -3.34612,-4.41942 -0.31854,-1.49781 -0.10943,-3.07896 0.43482,-4.51028 0.54425,-1.43133 1.41148,-2.72241 2.40623,-3.88662 0.83413,-0.97623 1.7641,-1.87497 2.50337,-2.92487 0.73928,-1.0499 1.28758,-2.29562 1.22156,-3.57798 -0.0573,-1.11212 -0.59674,-2.19111 -1.45209,-2.90419 l -7.82868,-8.14434 1.89404,-3.03047 29.04188,9.59646 -1.38896,2.33596 z" opacity="1"/><path id="path4312" fill="#64e770" fill-opacity="1" fill-rule="evenodd" stroke="none" stroke-linecap="butt" stroke-linejoin="miter" stroke-opacity="1" stroke-width="1" d="m 231.30104,127.04385 c -0.93538,0.28067 -1.96119,0.25057 -2.87851,-0.0845 -0.91732,-0.33502 -1.72107,-0.97311 -2.25541,-1.79055 -0.53797,-0.823 -0.79541,-1.79426 -1.01097,-2.75357 -0.21556,-0.95931 -0.40117,-1.93694 -0.81939,-2.82679 -0.69654,-1.48203 -1.99739,-2.61332 -3.4375,-3.39285 -1.60778,-0.87029 -3.40779,-1.34673 -5.22322,-1.5625 -2.06402,-0.24531 -4.22455,-0.1474 -6.11607,0.71428 -1.57353,0.71681 -2.91273,1.96784 -3.66071,3.52679 -0.56272,1.17283 -0.78432,2.53845 -0.44643,3.79464 0.20719,0.77027 0.61778,1.47946 1.14964,2.07391 0.53186,0.59446 1.18284,1.07643 1.88607,1.45288 1.34683,0.72097 2.87772,1.05914 4.19643,1.83035 1.19774,0.70047 2.18699,1.75253 2.8125,2.99107 l -0.0446,2.5 15.84817,-6.47321 z" opacity="1"/><path id="path4316" fill="#66e771" fill-opacity="1" fill-rule="evenodd" stroke="none" stroke-linecap="butt" stroke-linejoin="miter" stroke-opacity="1" stroke-width="1" d="m 213.22069,135.39206 c -2.8539,0.43424 -5.84333,-0.0746 -8.39286,-1.42857 -3.126,-1.66012 -5.46153,-4.45465 -8.125,-6.78571 -2.21466,-1.93826 -4.71852,-3.59182 -7.5,-4.55357 -2.36923,-0.81921 -4.91431,-1.12158 -7.41071,-0.89286 -2.10433,0.1928 -4.1761,0.76203 -6.07143,1.69643 -1.68757,0.83197 -3.2528,1.97194 -4.375,3.48214 -1.08348,1.45808 -1.72872,3.27679 -1.60715,5.08929 0.10585,1.57812 0.80693,3.11839 1.96429,4.19643 1.3936,1.2981 3.29798,1.85316 5.08929,2.5 3.1827,1.14928 6.23849,2.71413 9.55357,3.39285 2.1355,0.43722 4.35139,0.49976 6.42857,1.16072 2.66203,0.84705 4.9933,2.69264 6.42857,5.08928 l 14.01786,-12.94643 z" opacity="1"/><path id="path4320" fill="#62e670" fill-opacity="1" fill-rule="evenodd" stroke="none" stroke-linecap="butt" stroke-linejoin="miter" stroke-opacity="1" stroke-width="1" d="m 198.22069,149.23135 c -2.21868,0.69232 -4.63909,0.72376 -6.875,0.0893 -2.80114,-0.79485 -5.23969,-2.58021 -8.03572,-3.39286 -1.50368,-0.43703 -3.07754,-0.58207 -4.64285,-0.625 -1.76309,-0.0483 -3.5869,0.0437 -5.17858,0.80357 -1.45347,0.69389 -2.62968,1.93001 -3.30357,3.39286 -0.2761,0.59934 -0.47197,1.23962 -0.53302,1.89667 -0.0611,0.65704 0.0157,1.3317 0.26517,1.94262 0.29515,0.72292 0.82258,1.33534 1.43934,1.81421 0.61677,0.47888 1.32208,0.83173 2.0428,1.13222 1.64598,0.68625 3.40043,1.11433 5.17857,1.25 1.81579,0.13854 3.64145,-0.0264 5.44643,-0.26786 2.01629,-0.26976 4.05635,-0.63579 6.07143,-0.35714 1.72449,0.23847 3.38007,0.95693 4.73214,2.05357 l 3.39286,-9.73216 z" opacity="1"/><path id="path4324" fill="#6ee87a" fill-opacity="1" fill-rule="evenodd" stroke="none" stroke-linecap="butt" stroke-linejoin="miter" stroke-opacity="1" stroke-width="1" d="m 196.70283,162.71349 c -4.59008,0.17436 -9.19467,-0.0349 -13.75,-0.625 -4.61286,-0.59751 -9.37536,-1.57507 -13.83929,-0.26785 -2.02318,0.59247 -3.92812,1.66438 -5.35714,3.21428 -1.24276,1.34789 -2.11507,3.08108 -2.23214,4.91072 -0.097,1.51637 0.33988,3.06897 1.25,4.28571 0.79629,1.06456 1.92378,1.84974 3.13816,2.39073 1.21437,0.54098 2.51868,0.85064 3.82612,1.09141 2.58817,0.47663 5.23716,0.69427 7.85715,0.44643 3.19312,-0.30206 6.28157,-1.28717 9.28572,-2.41071 1.89625,-0.70919 3.77361,-1.47696 5.71428,-2.05357 1.4899,-0.44268 3.01366,-0.77133 4.55357,-0.98215 l -0.44643,-10 z" opacity="1"/><path id="path4328" fill="#5ae669" fill-opacity="1" fill-rule="evenodd" stroke="none" stroke-linecap="butt" stroke-linejoin="miter" stroke-opacity="1" stroke-width="1" d="m 198.34062,175.60762 c -5.08518,2.20612 -10.38663,3.91337 -15.80357,5.08929 -1.67629,0.36389 -3.36955,0.67867 -4.99213,1.23508 -1.62259,0.55642 -3.1892,1.37232 -4.38287,2.6042 -0.84357,0.87058 -1.48598,1.94225 -1.81284,3.10959 -0.32686,1.16733 -0.33242,2.42915 0.0271,3.58684 0.48176,1.55124 1.61568,2.8721 3.03572,3.66071 1.45871,0.81009 3.18769,1.06811 4.84632,0.88638 1.65862,-0.18174 3.25147,-0.78533 4.70725,-1.60066 3.20763,-1.79648 5.83364,-4.62818 9.28571,-5.89286 2.18131,-0.79913 4.56995,-0.91391 6.875,-0.625 0.39362,0.0493 0.78866,0.11083 1.1623,0.2441 0.37365,0.13326 0.72777,0.34303 0.98056,0.64876 0.24155,0.29213 0.38106,0.66356 0.41042,1.04148 0.0294,0.37793 -0.049,0.76126 -0.20722,1.10574 -0.31635,0.68897 -0.93683,1.20356 -1.62261,1.52674 -1.37158,0.64636 -2.96835,0.58811 -4.4148,1.04286 -1.86047,0.58491 -3.38727,2.01709 -4.3227,3.72835 -0.74029,1.35428 -1.14119,2.93996 -0.86222,4.45794 0.19799,1.07732 0.738,2.08795 1.51786,2.85713 0.92016,0.90756 2.15957,1.46813 3.44143,1.63296 1.28187,0.16483 2.60119,-0.0562 3.79071,-0.56153 2.02483,-0.86026 3.62216,-2.48596 5.53572,-3.57143 1.73856,-0.9862 3.69511,-1.50374 5.57838,-2.17341 1.88327,-0.66967 3.77122,-1.54353 5.0836,-3.05112 0.93507,-1.07416 1.52779,-2.42911 1.75542,-3.83494 0.22763,-1.40582 0.0974,-2.85977 -0.30471,-4.22596 -0.80428,-2.73236 -2.65701,-5.05467 -4.80241,-6.92815 -4.01126,-3.50285 -9.19152,-5.64314 -14.50544,-5.99311 l 0,2e-5 z" opacity="1"/><ellipse id="path4237-6-2-9-1" cx="204.061" cy="209.561" fill="#64e670" fill-opacity="1" stroke="none" stroke-dasharray="none" stroke-dashoffset="0" stroke-linecap="butt" stroke-linejoin="round" stroke-miterlimit="4" stroke-opacity="1" stroke-width="4" opacity="1" rx="5.157" ry="3.851"/><ellipse id="path4237-6-2-9-1-2" cx="88.373" cy="200.449" fill="#64e670" fill-opacity="1" stroke="none" stroke-dasharray="none" stroke-dashoffset="0" stroke-linecap="butt" stroke-linejoin="round" stroke-miterlimit="4" stroke-opacity="1" stroke-width="4" opacity="1" rx="7.114" ry="5.019" transform="matrix(0.9348719,-0.35498526,0.35498526,0.9348719,0,0)"/><ellipse id="path4237-6-2-9-1-2-7" cx="169.14" cy="147.596" fill="#64e670" fill-opacity="1" stroke="none" stroke-dasharray="none" stroke-dashoffset="0" stroke-linecap="butt" stroke-linejoin="round" stroke-miterlimit="4" stroke-opacity="1" stroke-width="4" opacity="1" rx="7.687" ry="5.423" transform="matrix(0.98380715,-0.17923027,0.17923027,0.98380715,0,0)"/><ellipse id="path4237-6-2-9-1-2-7-0" cx="168.967" cy="137.072" fill="#64e670" fill-opacity="1" stroke="none" stroke-dasharray="none" stroke-dashoffset="0" stroke-linecap="butt" stroke-linejoin="round" stroke-miterlimit="4" stroke-opacity="1" stroke-width="4" opacity="1" rx="3.768" ry="2.658" transform="matrix(0.98380715,-0.17923027,0.17923027,0.98380715,0,0)"/><ellipse id="path4237-6-2-9-1-2-7-0-9" cx="186.87" cy="137.656" fill="#64e670" fill-opacity="1" stroke="none" stroke-dasharray="none" stroke-dashoffset="0" stroke-linecap="butt" stroke-linejoin="round" stroke-miterlimit="4" stroke-opacity="1" stroke-width="4" opacity="1" rx="4.627" ry="3.264" transform="matrix(0.98844615,-0.15157245,0.15157245,0.98844615,0,0)"/></g></g></svg>