<svg xmlns="http://www.w3.org/2000/svg" xmlns:svg="http://www.w3.org/2000/svg" id="svg2" width="83.675" height="66.418" version="1.1" viewBox="0 0 83.675 66.418"><title id="title4253">Splatoony Button (Leak Piece)</title><defs id="defs4"><filter id="filter4760" color-interpolation-filters="sRGB"><feFlood id="feFlood4762" flood-color="#000" flood-opacity=".251" result="flood"/><feComposite id="feComposite4764" in="flood" in2="SourceGraphic" operator="in" result="composite1"/><feGaussianBlur id="feGaussianBlur4766" in="composite1" result="blur" stdDeviation="1"/><feOffset id="feOffset4768" dx="2" dy="2" result="offset"/><feComposite id="feComposite4770" in="offset" in2="offset" operator="atop" result="composite2"/></filter></defs><metadata id="metadata7"/><g id="layer1" transform="translate(-210.518,-117.98458)"><path id="path4201" fill="#63e76f" fill-opacity="1" fill-rule="evenodd" stroke="none" stroke-linecap="butt" stroke-linejoin="miter" stroke-opacity="1" stroke-width="1" d="m 213.43635,121.57105 c -3.59993,6.62054 -3.88913,14.94014 -0.75761,21.79467 0.76015,1.66387 1.71723,3.25377 2.97675,4.58038 1.25952,1.32662 2.8356,2.3833 4.59939,2.86843 1.59573,0.43891 3.29164,0.39996 4.92425,0.12874 1.63261,-0.27123 3.21765,-0.76826 4.80374,-1.24082 1.58608,-0.47255 3.18857,-0.92391 4.83419,-1.09966 1.64563,-0.17575 3.34935,-0.0649 4.88326,0.55646 1.81704,0.73605 3.31005,2.16619 4.29315,3.86234 0.9612,1.65837 1.45536,3.55638 1.6531,5.46295 0.19774,1.90657 0.10904,3.83096 -0.032,5.74256 -0.28205,3.82321 -0.76025,7.76276 0.39919,11.41682 1.07038,3.3734 3.58337,6.28967 6.81853,7.72469 2.91867,1.29463 6.33979,1.35753 9.34391,0.27588 3.4419,-1.23928 6.33485,-4.00764 7.57615,-7.44881 0.83277,-2.30863 0.9279,-4.81686 0.82266,-7.26884 -0.10523,-2.45198 -0.4017,-4.90012 -0.31759,-7.35291 0.0684,-1.99337 0.39436,-3.99543 1.16067,-5.83689 0.76631,-1.84146 1.99207,-3.51944 3.63756,-4.64663 1.24244,-0.85109 2.68717,-1.36862 4.15535,-1.70396 1.46817,-0.33535 2.96949,-0.49631 4.46298,-0.68999 1.49348,-0.19368 2.9907,-0.42255 4.42314,-0.88743 1.43244,-0.46488 2.80701,-1.17807 3.87858,-2.23625 1.21116,-1.19603 1.99347,-2.81768 2.17573,-4.51008 0.18226,-1.69239 -0.23683,-3.44342 -1.16557,-4.86991 l 0.75761,-10.20764 -0.75761,-8.00057 -79.54952,0.82764 0.25254,4.13823 -0.25254,-1.3794 z"/></g></svg>