<svg xmlns="http://www.w3.org/2000/svg" xmlns:svg="http://www.w3.org/2000/svg" xmlns:xlink="http://www.w3.org/1999/xlink" id="svg2" width="230.18" height="136.903" version="1.1" viewBox="0 0 230.18 136.903"><title id="title4253">Splatoony Button</title><defs id="defs4"><linearGradient id="linearGradient4772"><stop id="stop4774" offset="0" stop-color="#c05dda" stop-opacity=".9"/><stop id="stop4776" offset="1" stop-color="#c45adf" stop-opacity=".9"/></linearGradient><linearGradient id="linearGradient4214"><stop id="stop4216" offset="0" stop-color="#c05dda" stop-opacity="1"/><stop id="stop4218" offset="1" stop-color="#c45adf" stop-opacity="1"/></linearGradient><linearGradient id="linearGradient4220" x1="14.286" x2="178.245" y1="18.472" y2="96.686" gradientTransform="translate(159.63448,105.87966)" gradientUnits="userSpaceOnUse" xlink:href="#linearGradient4772"/><linearGradient id="linearGradient4662" x1="14.286" x2="178.245" y1="18.472" y2="96.686" gradientTransform="translate(159.63447,105.87965)" gradientUnits="userSpaceOnUse" xlink:href="#linearGradient4214"/><filter id="filter4760" color-interpolation-filters="sRGB"><feFlood id="feFlood4762" flood-color="#000" flood-opacity=".251" result="flood"/><feComposite id="feComposite4764" in="flood" in2="SourceGraphic" operator="in" result="composite1"/><feGaussianBlur id="feGaussianBlur4766" in="composite1" result="blur" stdDeviation="1"/><feOffset id="feOffset4768" dx="2" dy="2" result="offset"/><feComposite id="feComposite4770" in="offset" in2="offset" operator="atop" result="composite2"/></filter></defs><metadata id="metadata7"/><g id="layer1" transform="translate(-140.45283,-94.471055)"><path id="path4149-6" fill="url(#linearGradient4662)" fill-opacity="1" stroke="none" stroke-dasharray="none" stroke-dashoffset="0" stroke-linecap="butt" stroke-linejoin="round" stroke-miterlimit="4" stroke-opacity="1" stroke-width="4.163" d="m 216.67744,105.87965 a 57.04324,57.04324 0 0 0 -57.04297,57.04297 57.04324,57.04324 0 0 0 57.04297,57.04298 57.04324,57.04324 0 0 0 2.66992,-0.0937 c 2.88048,0.19514 5.80525,0.0361 8.65039,-0.38672 6.92354,-1.02898 13.54193,-3.4745 20.21484,-5.58789 6.67291,-2.11339 13.57943,-3.92241 20.57227,-3.61524 7.68544,0.3376 15.13157,3.21796 22.78906,3.48438 a 47.395653,43.986389 0 0 0 12.48243,1.60351 47.395653,43.986389 0 0 0 47.39453,-43.98633 47.395653,43.986389 0 0 0 -47.39453,-43.98633 47.395653,43.986389 0 0 0 -13.24024,1.77539 c -5.60194,-0.031 -11.25563,0.56877 -16.70898,-0.65039 -4.63013,-1.03512 -8.8722,-3.33506 -12.91602,-5.81641 -4.04383,-2.48139 -7.97933,-5.18049 -12.30078,-7.13872 -0.48429,-0.21945 -0.9769,-0.42634 -1.47266,-0.625 a 57.04324,57.04324 0 0 0 -30.74023,-9.0625 z" filter="url(#filter4760)" opacity=".8"/><path id="path4149" fill="url(#linearGradient4220)" fill-opacity="1" stroke="none" stroke-dasharray="none" stroke-dashoffset="0" stroke-linecap="butt" stroke-linejoin="round" stroke-miterlimit="4" stroke-opacity="1" stroke-width="4.163" d="m 216.67745,105.87966 a 57.04324,57.04324 0 0 0 -57.04297,57.04297 57.04324,57.04324 0 0 0 57.04297,57.04297 57.04324,57.04324 0 0 0 2.66992,-0.0937 c 2.88048,0.19514 5.80525,0.0361 8.65039,-0.38672 6.92354,-1.02898 13.54194,-3.4745 20.21485,-5.58789 6.67291,-2.11339 13.57942,-3.92241 20.57226,-3.61524 7.68544,0.3376 15.13157,3.21796 22.78906,3.48438 a 47.395653,43.986389 0 0 0 12.48243,1.60351 47.395653,43.986389 0 0 0 47.39453,-43.98632 47.395653,43.986389 0 0 0 -47.39453,-43.98633 47.395653,43.986389 0 0 0 -13.24024,1.77539 c -5.60194,-0.031 -11.25563,0.56878 -16.70898,-0.65039 -4.63013,-1.03512 -8.8722,-3.33506 -12.91602,-5.81641 -4.04383,-2.48139 -7.97933,-5.18049 -12.30078,-7.13872 -0.48428,-0.21945 -0.9769,-0.42634 -1.47265,-0.625 a 57.04324,57.04324 0 0 0 -30.74024,-9.0625 z" opacity="1"/></g></svg>