<svg xmlns="http://www.w3.org/2000/svg" xmlns:svg="http://www.w3.org/2000/svg" id="svg2" width="116.565" height="89.594" version="1.1" viewBox="0 0 116.565 89.594"><title id="title4529">Card Header</title><defs id="defs4"><filter id="filter4517" color-interpolation-filters="sRGB"><feFlood id="feFlood4519" flood-color="#000" flood-opacity=".686" result="flood"/><feComposite id="feComposite4521" in="flood" in2="SourceGraphic" operator="in" result="composite1"/><feGaussianBlur id="feGaussianBlur4523" in="composite1" result="blur" stdDeviation="3"/><feOffset id="feOffset4525" dx="1" dy="2.5" result="offset"/><feComposite id="feComposite4527" in="offset" in2="offset" operator="atop" result="composite2"/></filter></defs><metadata id="metadata7"/><g id="layer1" transform="translate(-358.26796,-505.51372)"><path id="path4147" fill="#000" fill-opacity="1" fill-rule="evenodd" stroke="none" stroke-linecap="butt" stroke-linejoin="miter" stroke-opacity="1" stroke-width="1" d="m 415.42756,550.61533 c -0.17121,-1.4479 -0.97339,-2.81 -2.1566,-3.66191 -1.1832,-0.85191 -2.72941,-1.18064 -4.15685,-0.88378 -1.08318,0.22527 -2.07664,0.79056 -2.91278,1.51506 -0.83615,0.7245 -1.52405,1.60516 -2.13799,2.52555 -1.62431,2.4351 -2.75255,5.15904 -4.05212,7.78186 -1.29957,2.62282 -2.82015,5.20906 -5.03925,7.11789 -1.69973,1.46208 -3.77453,2.47976 -5.96599,2.95331 -2.19146,0.47355 -4.49515,0.40445 -6.66091,-0.17539 -3.55192,-0.95095 -6.65583,-3.24996 -8.95911,-6.11621 -2.30327,-2.86625 -3.85009,-6.27898 -4.93049,-9.79369 -2.71693,-8.83861 -2.53724,-18.54216 0.50507,-27.27412 1.15145,-3.22704 3.17931,-6.13658 5.80838,-8.33376 2.72325,-2.27589 6.08473,-3.77971 9.59645,-4.29315 l 49.24494,-0.75761 c 3.63799,1.43004 6.94563,3.69316 9.59645,6.56599 2.89014,3.1322 4.9922,6.98598 6.06091,11.11168 l -33.84011,21.71828 z" filter="url(#filter4517)"/><path id="path4147-6" fill="#141414" fill-opacity="1" fill-rule="evenodd" stroke="none" stroke-linecap="butt" stroke-linejoin="miter" stroke-opacity="1" stroke-width="1" d="m 410.12425,595.108 5.3033,-44.49267 c -0.17121,-1.4479 -0.97339,-2.81 -2.1566,-3.66191 -1.1832,-0.85191 -2.72941,-1.18064 -4.15685,-0.88378 -1.08318,0.22527 -2.07664,0.79056 -2.91278,1.51506 -0.83615,0.7245 -1.52405,1.60516 -2.13799,2.52555 -1.62431,2.4351 -2.75255,5.15904 -4.05212,7.78186 -1.29957,2.62282 -2.82015,5.20906 -5.03925,7.11789 -1.69973,1.46208 -3.77453,2.47976 -5.96599,2.95331 -2.19146,0.47355 -4.49515,0.40445 -6.66091,-0.17539 -3.55192,-0.95095 -6.65583,-3.24996 -8.95911,-6.11621 -2.30327,-2.86625 -3.85009,-6.27898 -4.93049,-9.79369 -2.71693,-8.83861 -2.53724,-18.54216 0.50507,-27.27412 1.15145,-3.22704 3.17931,-6.13658 5.80838,-8.33376 2.72325,-2.27589 6.08473,-3.77971 9.59645,-4.29315 l 49.24494,-0.75761 c 3.68538,1.32947 7.0222,3.61256 9.59645,6.56599 2.78794,3.1986 4.53165,7.15378 6.06091,11.11168 l 25.565,66.16499 -64.70841,0.046 0,-4e-5 z"/></g></svg>